<svg width="22" height="22" viewBox="0 0 22 22" fill="none" xmlns="http://www.w3.org/2000/svg">
<circle cx="11" cy="11" r="11" fill="#007BC7"/>
<g clip-path="url(#clip0_290_190)">
<path d="M14.8769 5.69271L11.0074 9.11978L7.13798 5.69265C6.73105 5.3322 6.11657 5.34134 5.72082 5.71343C5.34865 6.10912 5.33952 6.72367 5.70003 7.13053L9.12717 11L5.70003 14.8696C5.33952 15.2764 5.34865 15.891 5.72075 16.2866C6.1165 16.6587 6.73098 16.6679 7.13791 16.3074L11.0074 12.8802L14.8768 16.3074C15.2837 16.6679 15.8982 16.6587 16.294 16.2867C16.6661 15.891 16.6752 15.2765 16.3147 14.8696L12.8876 11L16.3148 7.1306C16.6753 6.72367 16.6661 6.10919 16.294 5.71343C15.8982 5.34134 15.2837 5.3322 14.8769 5.69271ZM11.0074 11.0099L11.0025 11.0049L10.9975 11L11.0025 10.9951L11.0074 10.9902L11.0124 10.9951L11.0173 11L11.0124 11.0049L11.0074 11.0099Z" fill="white"/>
</g>
<defs>
<clipPath id="clip0_290_190">
<rect width="16.359" height="16.359" fill="white" transform="translate(2.82031 2.82056)"/>
</clipPath>
</defs>
</svg>
