<svg width="22" height="23" viewBox="0 0 22 23" fill="none" xmlns="http://www.w3.org/2000/svg">
<path d="M18.1441 17.2476V19.5485H4.33819V17.2476H0.886719V21.8495C0.886719 22.4854 1.40133 23 2.03721 23H20.445C21.0809 23 21.5955 22.4854 21.5955 21.8495V17.2476H18.1441Z" fill="#007BC7"/>
<path d="M10.0217 16.6448C10.3171 17.015 10.7655 17.2308 11.2396 17.2308C11.7137 17.2308 12.162 17.015 12.4575 16.6448L19.1098 8.32344C19.5851 7.73014 19.5627 6.88084 19.057 6.31285C18.5515 5.74658 17.7111 5.62359 17.0662 6.02753L13.5406 8.22945V1.62345C13.5406 0.372413 12.4597 0 11.2407 0C10.0195 0 8.93861 0.372413 8.93861 1.62345V8.22945L5.41293 6.02753C4.76694 5.62474 3.92765 5.74773 3.42213 6.31285C2.91649 6.88084 2.89405 7.73014 3.36932 8.32344L10.0217 16.6448Z" fill="#007BC7"/>
</svg>
