<svg width="31" height="31" viewBox="0 0 31 31" fill="none" xmlns="http://www.w3.org/2000/svg">
<path d="M27.7965 17.1787L15.0618 26.9208L2.32707 17.1787L0.277292 18.794C0.0429862 18.9786 0.0429862 19.3593 0.277292 19.544L14.4 30.6735C14.7951 30.9849 15.3285 30.9849 15.7236 30.6735L29.8463 19.544C30.0806 19.3594 30.0806 18.9786 29.8463 18.794L27.7965 17.1787Z" fill="#007BC7"/>
<path d="M14.4 24.2292C14.7951 24.5406 15.3285 24.5406 15.7236 24.2292L29.8463 13.0997C30.0806 12.915 30.0806 12.5344 29.8463 12.3497L15.7236 1.22008C15.3285 0.908735 14.7951 0.908735 14.4 1.22008L0.277292 12.3497C0.0429862 12.5343 0.0429862 12.915 0.277292 13.0997L14.4 24.2292Z" fill="#007BC7"/>
</svg>
