<svg width="33" height="51" viewBox="0 0 33 51" fill="none" xmlns="http://www.w3.org/2000/svg">
<path
    d="M16.797 0.599609C7.582 0.599609 0.6348 7.5558 0.6348 16.7708C0.6348 22.1342 3.2265 26.1478 6.2231 30.7913C9.1388 35.2998 12.4325 41.3021 14.4932 49.2123C14.7632 50.2651 15.7171 50.9941 16.797 50.9941C17.8769 50.9941 18.8308 50.2651 19.1007 49.2123C21.1525 41.3021 24.4551 35.2998 27.3708 30.7913C30.3675 26.1478 32.9592 22.1432 32.9592 16.7708C32.9592 7.5468 26.012 0.599609 16.797 0.599609ZM16.797 25.9768C11.7305 25.9768 7.618 21.8643 7.618 16.7978C7.618 11.7314 11.7305 7.6188 16.797 7.6188C21.8634 7.6188 25.976 11.7314 25.976 16.7978C25.976 21.8643 21.8634 25.9768 16.797 25.9768Z"
    fill-rule="evenodd" />
<path
    d="M16.7964 12.2983C14.3127 12.2983 12.2969 14.3141 12.2969 16.7978C12.2969 19.2816 14.3127 21.2973 16.7964 21.2973C19.2801 21.2973 21.2959 19.2816 21.2959 16.7978C21.2959 14.3141 19.2801 12.2983 16.7964 12.2983Z"
    fill-rule="evenodd" />
</svg>
