<svg width="27" height="6" viewBox="0 0 27 6" fill="none" xmlns="http://www.w3.org/2000/svg">
<path d="M24.2194 0.492714H16.3652H15.2432C14.9066 0.492694 15.4396 0.492822 13.8968 0.492822C12.354 0.492822 13.8968 0.492585 12.5504 0.492714H10.7551H2.90103C1.35826 0.492714 0.9375 1.70823 0.9375 3.19387C0.9375 4.6795 1.35826 5.89502 2.90103 5.89502H10.7551H11.5406C12.1176 5.89502 11.3442 5.89498 12.887 5.89498C14.4298 5.89498 14.9066 5.89498 15.2432 5.89498L16.3652 5.89502H24.2194C25.7621 5.89502 26.1829 4.6795 26.1829 3.19387C26.1829 1.70823 25.7621 0.492714 24.2194 0.492714Z" fill="#007BC7"/>
</svg>
