<svg width="26" height="26" viewBox="0 0 26 26" fill="none" xmlns="http://www.w3.org/2000/svg">
<path d="M23.2659 10.4662H15.5088V2.70906C15.5088 1.18534 14.2621 0.769775 12.7383 0.769775C11.2146 0.769775 9.96793 1.18534 9.96793 2.70906V10.4662H2.21077C0.687046 10.4662 0.271484 11.7129 0.271484 13.2366C0.271484 14.7604 0.687046 16.007 2.21077 16.007H9.96793V23.7642C9.96793 25.2879 11.2146 25.7035 12.7383 25.7035C14.2621 25.7035 15.5088 25.2879 15.5088 23.7642V16.007H23.2659C24.7896 16.007 25.2052 14.7604 25.2052 13.2366C25.2052 11.7129 24.7896 10.4662 23.2659 10.4662Z" fill="#007BC7"/>
</svg>
