<svg version="1.2" xmlns="http://www.w3.org/2000/svg" viewBox="0 0 50 100" width="50" height="100">
	<title>RO_Logo_online_pos_nl-svg</title>
	<style>
		.s0 { fill: none } 
		.s1 { fill: #154273 } 
		.s2 { fill: #ffffff } 
		.s3 { fill: #000000 } 
	</style>
	<g id="Laag_1">
		<g>
			<path fill-rule="evenodd" class="s0" d="m0 0h314v125h-314z"/>
			<path class="s1" d="m0 0h50v100h-50z"/>
		</g>
		<path fill-rule="evenodd" class="s2" d="m20.1 62.7v1.9h0.9v-2.1c1.1-0.2 2.5-0.4 4-0.4 3.2 0 5.8 0.8 6.4 1 0-0.4-0.1-0.7-0.4-0.7 0 0-0.1-0.1 0-0.1 0.6-0.4 1 0.4 1 0.4 0.2 0 0.6 0.1 0.6 0.4 0 0.9 2.1 1.4 2.6 1.5-0.9 0.3-1.3 1.4-1.3 1.4-0.6-0.6-1.3-1.2-1.5-1.2-0.1 0-0.2 0.2-0.2 0.4q0 0-0.1 0c-0.3-0.5-0.2-0.6-0.1-0.8 0-0.1-0.1-0.5-0.5-0.5v6.2l0.2 0.1c0.1 0 1-0.8 2.1-1.5 1-0.7 1.6-0.3 2.7 0.4 1.6 0.8 3.2 0 3.2 0 1.3 1 1.7 3.8 1.7 3.8 0.3 0.1 0.7 0.2 1.2 0.2 1 0 1.2-0.6 1.2-1 0-1.6-2-2.2-2-3.8 0-0.4 0.2-1.9 2.1-1.9 0.2 0 1.6 0 1.7 0 0.7 0 0.8-0.5 0.9-0.7 0.1-0.1 0.1 0 0.1 0 0 0.2 0.1 0.4 0.1 0.7 0 0.7-0.4 1.1-1.1 1.1-0.3 0-0.6-0.1-0.7-0.2 0 0-0.1 0 0 0.1 0.3 0.3 0.3 1 0.2 1.1q-0.1 0.1-0.1 0c-0.2-0.6-0.8-1.3-1.6-1.3-1 0-1 0.9-1 1.1 0 1.3 2.2 2.2 2.2 3.9 0 1.8-1.9 2.2-3 1.9 0.1 1.8 2.1 2.4 2.2 1.1 0-0.1 0-0.1 0.1 0 0.2 0.6 0.1 1.2-0.7 1.3q0 0.1 0 0.1c0.8 0.5 0.4 2.5 0.4 3-0.1 0.8 0.7 0.7 0.8 0.7 0 0 0.1 0 0 0.1-0.6 0.7-1.3 0.1-1.3 0.1-0.5 0.1-0.2 0.6 0.2 0.8q0 0.1 0 0.1c-0.1 0-1 0.1-1.1-0.6-0.4 0.5-0.9 0.3-1 0.2-0.2 0-1-0.3-1.1 0.5q0 0.1 0 0c-0.6-0.7 0-1.2 0.4-1.2-0.1-0.1-0.5-0.5-1 0.1q0 0.1 0 0c-0.1-1 0.7-1.1 1.2-0.7 0-0.1 0.2-0.6-0.6-0.6 0.6-0.7 1.1-0.1 1.2 0 0.2 0.4 0.9 0.2 0.9 0.2-0.2-3.3-3-2.1-3.4-3.7-0.1-0.1-0.1-0.1-0.1 0-0.1 0.4-1.1 0.4-1.3-0.3 0-0.1 0-0.1 0-0.1 0.9 0.8 2.8-1.8 0.2-3.9-2.2-1.8-4.2-0.8-4.9-0.2-0.1 0.3 0.1 0.3 0.2 0.4q0.1 0 0 0c-0.2 0.1-0.5 0.1-0.7-0.1-0.4 0.3 0 0.7 0.2 0.9q0 0-0.1 0c-0.4 0.1-0.7-0.3-0.8-0.6v1.9c0 2.7-3.1 3-6.5 5.3-3.3-2.3-6.4-2.6-6.4-5.3v-1.8l-0.1-0.1c0 0.3-0.3 0.7-0.8 0.6q-0.1 0 0 0c0.2-0.2 0.6-0.6 0.1-0.9-0.1 0.2-0.4 0.2-0.6 0.1q-0.1 0 0 0c0.1-0.1 0.2-0.1 0.2-0.4-0.8-0.6-2.7-1.6-4.9 0.2-2.6 2.1-0.7 4.7 0.1 3.9 0.1 0 0.1 0 0.1 0.1-0.2 0.7-1.2 0.7-1.3 0.3 0-0.1-0.1-0.1-0.1 0-0.4 1.6-3.3 0.4-3.5 3.7 0.1 0 0.7 0.2 1-0.2 0.1-0.1 0.6-0.7 1.2 0 0 0 0 0-0.1 0-0.7 0-0.5 0.5-0.5 0.6 0.5-0.4 1.2-0.3 1.2 0.7q0 0.1-0.1 0c-0.4-0.6-0.9-0.2-0.9-0.1 0.4 0 1 0.5 0.4 1.2 0 0.1-0.1 0.1-0.1 0 0-0.8-0.8-0.5-1-0.5-0.1 0.1-0.6 0.3-1-0.2-0.2 0.7-1 0.6-1.1 0.6q-0.1 0 0-0.1c0.4-0.2 0.7-0.7 0.2-0.8 0 0-0.8 0.6-1.3-0.1-0.1-0.1-0.1-0.1 0-0.1 0 0 0.9 0.1 0.8-0.7 0-0.5-0.5-2.5 0.3-3q0.1 0 0-0.1c-0.7-0.1-0.8-0.7-0.6-1.3 0-0.1 0.1-0.1 0.1 0 0.1 1.3 2.1 0.7 2.1-1.1-1 0.3-2.9-0.1-2.9-1.9 0-1.7 2.2-2.6 2.2-3.9 0-0.2 0-1.1-1-1.1-0.8 0-1.5 0.7-1.6 1.3q-0.1 0.1-0.1 0c-0.1-0.1-0.1-0.8 0.2-1.1 0-0.1 0-0.1-0.1-0.1-0.1 0.1-0.4 0.2-0.7 0.2-0.7 0-1-0.4-1-1.1 0-0.3 0.1-0.5 0-0.7 0 0 0.1-0.1 0.1 0 0.1 0.2 0.3 0.7 1 0.7 0 0 1.5 0 1.7 0 1.9 0 2.1 1.5 2.1 1.9 0 1.6-2 2.2-2 3.8 0 0.4 0.2 1 1.2 1 0.4 0 0.9-0.1 1.1-0.2 0 0 0.5-2.8 1.8-3.8 0 0 1.6 0.8 3.1 0 1.2-0.7 1.8-1.1 2.8-0.4 1 0.7 1.9 1.5 2.1 1.5l0.2-0.1v-6.2c-0.5 0-0.5 0.4-0.5 0.5 0 0.2 0.2 0.3-0.1 0.8q-0.1 0-0.1 0c0-0.2-0.1-0.4-0.3-0.4-0.1 0-0.8 0.6-1.5 1.2 0 0-0.3-1.1-1.2-1.4 0.5-0.1 2.6-0.6 2.6-1.5 0-0.3 0.4-0.4 0.6-0.4 0 0 0.3-0.8 1-0.4v0.1c-0.3 0-0.4 0.3-0.4 0.7 0.2-0.1 0.7-0.3 1.4-0.4zm9.7 1.6h-0.8v2.4h0.8zm-14.8-1.6c0.4 0 0.7-0.1 0.8-0.4 0-0.1 0.1-0.1 0.1 0 0.2 0.6-0.3 0.9-0.7 0.9-0.5 0-0.8-0.3-1.5-0.4-0.3-0.1-0.5 0-0.5-0.1 0-0.1 0.4-0.1 0.5-0.1 0.7 0 0.8 0.1 1.3 0.1zm-7.2 1.8c0-0.1 0.1-0.1 0.1 0 0.5 0.2 0.8-0.4 0.7-1-0.1-0.3-0.4-1.2 0.4-1.9 0.7 0.4 1.2-0.3 1.1-0.6-0.1-0.1-0.1-0.1-0.1 0 0 0.2-0.3 0.4-0.4 0.4-0.3 0-0.9-0.4-0.9-0.9 0.8-0.5 2-0.3 2.3 0.7 0 0.1 0.2 0.1 0.1 0 0-0.1 0-0.7-0.5-0.9-0.5-0.3-0.4-0.7-0.2-0.8 0-0.1 0.1 0 0.1 0-0.2 0.3 0.2 0.5 0.8 0.4 1.2-0.1 1.6 0.3 1.6 0.6 0.3 0.1 1.3 0.7 1.3 0.9 0 0 0 0.2-0.1 0.2 0 0 0 0.5-0.3 0.7-1.3-0.7-1.7 0-1.5 0.5 0 0 0.2 0.2 1.1 0.2 0 0-0.1 0.3-0.2 0.4 0 0 0.2 0.2 0.1 0.5 0 0-0.4-0.4-1.2-0.3 0 0-0.5 0.7 1.3 1.1 1.8 0.3 2.4 2 2.4 3q0 0-0.1 0c-1.4-0.3-2.1 1.3-4 1.1 0.2-0.5 0-0.9 0-0.9-0.2 0.4-0.5 0.6-0.8 0.8-0.7-0.2-1.1-0.5-1.2-0.7 0 0 0.7-0.6 0.2-1.7 0 0-0.4 0.8-1.3 0.4-0.1-0.1-0.1-0.1 0-0.1 1.2-0.4 0.4-1.5 0.3-1.6-0.6 0.3-1.1-0.1-1.1-0.5zm4.2-3.6c0.1 0.6 0.7 0.7 1 0.3 0-0.3-0.3-0.3-1-0.3zm24.4 1.7c0 0 0.5 0 0.5 0.1 0 0.1-0.2 0-0.5 0.1-0.7 0.1-1 0.4-1.5 0.4-0.4 0-0.9-0.3-0.7-0.9 0-0.1 0.1-0.1 0.1 0 0 0.3 0.4 0.4 0.8 0.4 0.4 0 0.5-0.1 1.3-0.1zm4.7 2.4c0 0.1-0.9 1.2 0.4 1.6 0.1 0 0.1 0 0 0.1-0.9 0.4-1.4-0.4-1.4-0.4-0.4 1.1 0.3 1.7 0.3 1.7-0.1 0.2-0.6 0.5-1.3 0.7-0.2-0.2-0.6-0.4-0.7-0.8 0 0-0.2 0.4 0 0.9-1.9 0.2-2.6-1.4-4.1-1.1 0-1 0.5-2.7 2.4-3 1.8-0.4 1.3-1.1 1.3-1.1-0.8-0.1-1.2 0.3-1.2 0.3-0.2-0.3 0-0.5 0-0.5 0-0.1-0.1-0.4-0.1-0.4 0.9 0 1.1-0.2 1.1-0.2 0.1-0.5-0.2-1.2-1.5-0.5-0.3-0.2-0.3-0.7-0.3-0.7-0.1 0-0.2-0.2-0.2-0.2 0-0.2 1.1-0.8 1.3-0.9 0.1-0.3 0.5-0.7 1.7-0.6 0.6 0.1 1-0.1 0.8-0.4-0.1 0 0-0.1 0.1 0 0.1 0.1 0.3 0.5-0.2 0.8-0.5 0.2-0.6 0.8-0.6 0.9 0 0.1 0.2 0.1 0.2 0 0.2-1 1.5-1.2 2.3-0.7-0.1 0.5-0.6 0.9-0.9 0.9-0.2 0-0.4-0.2-0.4-0.4 0-0.1-0.1-0.1-0.1 0-0.1 0.3 0.4 1 1.1 0.6 0.7 0.7 0.4 1.6 0.4 1.9-0.2 0.6 0.1 1.2 0.7 1q0-0.2 0 0c0 0.4-0.5 0.8-1.1 0.5zm-4-3.8c0.3 0.4 0.9 0.3 1-0.3-0.7 0-1 0-1 0.3zm-12.1-11.4c0.2 0 0.4 0.2 0.4 0.4 0 0.2-0.1 0.3-0.2 0.4q-0.2 0.3 0 0.3c0.1 0.1 0.1 0.1 0.3 0 0.1-0.1 0.2-0.2 0.4-0.2 0.3 0 0.4 0.2 0.4 0.4 0 0.1-0.1 0.3-0.4 0.3-0.2 0-0.3-0.1-0.4-0.1-0.2-0.1-0.2-0.1-0.3-0.1-0.1 0.1 0 0.6 0.1 1.1 0.4 0.1 0.7 0.4 0.7 0.7 0 0.5-0.6 0.8-1 1-0.3-0.2-0.9-0.5-0.9-1 0-0.3 0.2-0.6 0.7-0.7 0-0.5 0.1-1 0.1-1.1-0.1 0-0.2 0-0.3 0.1-0.1 0-0.3 0.1-0.4 0.1-0.3 0-0.4-0.2-0.4-0.3 0-0.2 0.1-0.4 0.4-0.4 0.1 0 0.3 0.1 0.4 0.2q0.2 0.2 0.3 0c0 0 0-0.1-0.1-0.3 0-0.1-0.1-0.2-0.1-0.4 0-0.2 0.2-0.4 0.3-0.4zm-4.1 11.4c-0.1-1.3 0-2.1-0.8-2 0.4-1.1-1.4-1.6-1.4-3 0-1 0.7-1.1 0.9-1.1 0.6 0 0.5 0.4 1 0.4 0.1 0 0.1 0 0.1 0 0 0.2-0.1 0.5-0.4 0.5-0.3 0-0.3-0.3-0.5-0.3-0.1 0-0.3 0-0.3 0.4 0 0.6 0.5 1.3 0.9 1.8q0.2-0.2 0.5-0.2c0.3 0 0.5 0.3 0.5 0.6q0 0.2 0 0.4 0.2 0.1 0.4 0.1c0.2 0 0.5-0.1 0.5-0.5 0-1.1-1.4-2-1.4-3.4 0-0.6 0.4-1.3 1.3-1.3 1 0 0.8 0.9 1.6 0.9q0.1 0 0.1 0c0 0.1-0.1 0.6-0.6 0.6-0.4 0-0.6-0.8-1-0.8-0.1 0-0.4 0.1-0.4 0.6 0 0.4 0.3 1.1 0.6 1.8q0.1-0.2 0.4-0.2c0.3 0 0.6 0.3 0.6 0.8 0 0.2-0.1 0.5-0.3 0.6 0.2 0.3 0.4 0.5 0.7 0.5 0.6 0 0.9-0.3 0.9-0.7 0-0.4-0.7-0.5-0.7-1.1 0-0.4 0.2-0.6 0.5-0.6 0.3 0 0.4 0.1 0.4 0.1 0.1 0 0.2-0.1 0.5-0.1 0.2 0 0.5 0.2 0.5 0.6 0 0.6-0.7 0.7-0.7 1.1 0 0.4 0.3 0.7 0.8 0.7 0.3 0 0.5-0.2 0.8-0.5-0.2-0.1-0.3-0.4-0.3-0.6 0-0.5 0.2-0.8 0.6-0.8q0.2 0 0.4 0.2c0.3-0.7 0.5-1.4 0.5-1.8 0-0.5-0.2-0.6-0.4-0.6-0.4 0-0.5 0.8-1 0.8-0.4 0-0.5-0.5-0.5-0.6 0.9 0 0.7-0.9 1.7-0.9 0.9 0 1.3 0.7 1.3 1.3 0 1.4-1.4 2.3-1.4 3.4 0 0.4 0.3 0.5 0.5 0.5q0.2 0 0.4-0.1-0.1-0.2-0.1-0.4c0-0.3 0.3-0.6 0.6-0.6q0.3 0 0.4 0.2c0.5-0.5 0.9-1.2 0.9-1.8 0-0.4-0.1-0.4-0.2-0.4-0.3 0-0.3 0.3-0.6 0.3-0.2 0-0.4-0.3-0.4-0.5 0 0 0.1 0 0.2 0 0.5 0 0.4-0.4 1-0.4 0.2 0 0.9 0.1 0.9 1.1 0 1.4-1.8 1.9-1.4 3-0.8-0.1-0.8 0.7-0.8 2 0 0-1.5-0.5-4.2-0.5-2.6 0-4.1 0.5-4.1 0.5zm4.8-6.2c0 0.3-0.3 0.6-0.7 0.6-0.3 0-0.6-0.3-0.6-0.6 0-0.4 0.3-0.7 0.6-0.7 0.4 0 0.7 0.3 0.7 0.7zm0.2 20h-0.9v2.4h0.9zm-8.8 8.8v1.1c0 1.9-3.1 0.1-6.2 0-2.5-0.2-3.2 0.4-3.2 0.4l0.5-2.5c0-0.1 0.6-0.5 2.3-0.5 2.1 0 3.1 0.4 3.5 0.5v1.3c0 0.3 0.1 0.5 0.4 0.6 0-0.1 0.3-0.9 2.7-0.9zm18.6 0.9c0.2-0.1 0.4-0.3 0.4-0.6v-1.3c0.4-0.1 1.4-0.5 3.5-0.5 1.7 0 2.2 0.4 2.3 0.5l0.4 2.5c0 0-0.7-0.6-3.2-0.4-3 0.1-6.1 1.9-6.1 0v-1.1c2.3 0 2.7 0.8 2.7 0.9zm-21.1-1.1c-0.1 0.1-0.1 0-0.1 0v-2.6c0-0.7 5.1-1.2 10.5-1.2 5.5 0 10.6 0.5 10.6 1.2v2.6c0 0-0.1 0.1-0.1 0-0.7-0.7-5.6-0.9-10.5-0.9-4.8 0-9.8 0.2-10.4 0.9zm6-12.7q0 0 0.1 0c0-0.1 0.2-0.3 0.4-0.3q0.1 0 0 0.1c-0.1 0-0.4 0.2-0.3 0.6q0.1 0 0.1 0c0.1-0.2 0.3-0.3 0.4-0.3l-0.1 0.7c0.5 0.1 1.1-0.2 1.1-0.8l-0.5-0.1c0.6-0.5 1.4-0.8 2.2-0.8 1.2 0 2 1.3 2 2.1 0 0.2 0 0.5-0.2 0.7-0.2 0.3-0.4 0.3-0.5 0.2q0-0.1 0 0c0.1 0.4 0.7 0.4 0.7 0.2 0-0.1 0.1-0.1 0.1 0 0.3 1 1.5-0.1 2.2 1.2-0.1 0-0.4 0.2-0.6 0.1-0.3-0.3-0.5 0-0.6 0.1 0.4 0 0.6 0.2 0.6 0.3-0.3-0.1-0.7 0-0.5 0.5q0 0.1 0 0c0.1-0.3 0.4-0.2 0.5-0.2-0.2 0.1-0.5 0.4 0 0.7 0-0.2 0.1-0.4 0.3-0.4 0.1 0 0.3 0 0.5-0.3 0.2 0.3 0.5 0.2 0.7 0.1q0 0 0-0.1c-0.2 0-0.6-0.2-0.3-0.4 0 0 0.5 0.2 0.7-0.3q0 0-0.1 0c0 0-0.5 0.3-0.6-0.2 0-0.3-0.1-0.8-0.3-0.9 0.2-0.1 0.3-0.3 0.1-0.6q0-0.1 0 0c-0.1 0.7-1.5 0.1-1.5-0.9 1 0.3 2 0 2-1 0-1-1-1.4-1-1.9 0-0.3 0.3-0.4 0.5-0.4 0.4 0 0.8 0.5 0.9 0.8q0 0.1 0 0c0.2-0.2 0.2-0.5 0.1-0.6-0.1 0 0 0 0 0 0.1 0.1 0.9 0 0.9-0.5 0-0.2-0.1-0.3-0.1-0.4 0-0.1-0.1-0.1-0.1 0 0 0.1-0.1 0.4-0.5 0.4-0.3 0-0.9-0.2-1.2-0.2-0.8 0-1 0.5-1 0.9 0 0.9 0.9 1 0.9 1.8 0 0.6-0.9 0.8-1.5 0.2-0.1-0.7-0.3-1.2-0.7-1.7-1.5 0.5-1.8-0.5-2.6-0.5-0.7 0-1.7 1.2-2.4 1.4l0.1-0.7 0.1-0.1v-0.6c0 0-0.2 0.4-0.2 0.5q-0.1 0.1-0.1 0c-0.1-0.2-0.2-0.5-0.2-0.5 0 0 0 0.4 0 0.5q0 0.1-0.1 0.1l-0.3-0.6c0 0 0 0.4 0.1 0.7q0 0-0.1 0l-0.5-0.5c0 0 0.2 0.4 0.3 0.7-0.1-0.1-0.6-0.4-0.6-0.4 0 0 0.2 0.3 0.4 0.6-0.4-0.1-0.6-0.2-0.6-0.2 0 0 0.2 0.2 0.4 0.4q0.1 0.1 0 0.1c-0.1 0-0.5 0-0.5 0l0.6 0.2 0.5 0.1c-0.1 0.1-0.1 0.3-0.1 0.4zm2.4 4.4c-0.2-0.1-0.3-0.3-0.3-0.4 0-0.2 0.5-0.5 0.7-0.5 0.1 0 0.1 0.2 0.4 0.2q0.2 0 0.4-0.2c-0.4 0-0.6-0.3-0.6-0.8 0-1.1 0.6-1.3 1.9-1.7q0-0.1 0-0.1c-0.3 0.1-0.6-0.3-0.3-0.7-0.2-0.1-0.5-0.3-0.7-0.3-0.9 0-1.6 1.1-1.8 1.2-0.1 0.2-0.4 0.4-0.5 0.2 0 0.4 0.3 0.4 0.5 0.4q0-0.1 0 0c-0.1 0.4 0.2 1.1 0.2 1.2 0 0-0.4 0.4-0.7 0.4-0.2 0-0.3-0.4-0.5-0.4q-0.2 0-0.3 0.2c0.2 0 0.4 0.1 0.3 0.3-0.3-0.2-0.7-0.2-0.7 0.4q0 0 0.1 0c0.2-0.3 0.5-0.1 0.5-0.1-0.2 0.1-0.6 0.3-0.2 0.7 0-0.1 0-0.3 0.3-0.3 0.3 0 0.5 0.2 0.7 0 0.1 0.3 0.5 0.3 0.6 0.3zm4.4-10.4c0-0.2 0.6-0.4 0.8-0.4q0 0 0-0.1c-0.3-0.1-0.8 0-0.9-0.1l-0.1-0.8-0.7 0.4c-0.2-0.1-0.4-0.5-0.6-0.7q-0.1 0-0.1 0.1c0.1 0.1 0.2 0.7 0.2 0.9-0.6-0.1-0.8 0.1-0.9 0.3-0.1 0-0.7 0.4-0.7 0.5 0 0 0 0.1 0.1 0.1 0 0 0 0.2 0.1 0.4 0.4-0.3 0.9-0.2 0.8 0.3 0 0 0 0.1-0.5 0.1v0.2c0 0-0.1 0.1 0 0.3 0 0 0.4-0.2 0.7-0.2 0.1 0.3 0 0.6-0.7 0.7-0.9 0.1-1.3 0.4-1.4 1.3 0.6 0 1.1 0.3 1.6 0.5 0.8 0.4 1.6-0.1 1.6-0.1-0.2-0.2-0.2-0.7 0.1-0.9 0.2 0.3 0.5 0.3 0.7 0.2q0.1-0.1 0-0.1c-0.3-0.2-0.4-0.5-0.2-0.9 0.2 0.3 0.6 0 0.7-0.2q0 0-0.1 0c-0.2 0.1-0.4-0.2-0.4-0.5 0-0.1 0.2-0.8-0.1-1.3zm-3.9 0.6q0-0.1 0 0c-0.1 0.4 0.1 0.6 0.4 0.6 0.4 0 0.4-0.3 1-0.3v-0.1c-0.1 0-0.4-0.1-0.6 0-0.5 0.1-0.7-0.1-0.8-0.2zm-7.8 13.6c0.2-0.2 0.4-0.4 0.4-0.6 0-0.4-0.8-0.9-1.1-0.9-0.3 0-0.4 0.2-0.8 0.2-0.2 0-0.5 0-0.7-0.3 0.2 0 0.7 0.1 0.9-0.7 0.2-0.9 0.3-1.6-0.1-1.9-0.3-0.3-1.8-0.9-2.6-1.2q-0.1 0 0 0c0.2-0.1 0.4-0.2 0.5-0.5 0-0.2-0.1-0.4-0.3-0.5 0.4-0.4 1.2-0.7 1.6-0.7 1.6 0 3 2.1 3.6 2.1 0.1 0 0.2 0 0.3-0.2q0.1 0 0.1 0.1c0 0.6-0.4 0.7-0.6 0.7q-0.1 0-0.3-0.1 0 0.1 0 0.2c0 0.7-0.8 1.6-0.8 1.6 0.4 0.3 1.3 1 1.5 0.6 0.1-0.1 0.6-1 1.3-0.3q0 0.1-0.1 0.1c-0.3 0-0.6 0.2-0.5 0.6 0.5-0.4 1.2-0.3 1.2 0.6q0 0.1 0 0c-0.4-0.5-0.9-0.1-1-0.1 0.4 0.1 1 0.5 0.4 1.3-0.1-0.5-0.4-0.6-0.6-0.6-0.5 0-0.9 0.4-1.3 0-0.1 0.6-0.8 0.5-1 0.5zm17.6-0.5c-0.3 0.4-0.7 0-1.2 0-0.3 0-0.6 0.1-0.6 0.6q0 0-0.1 0c-0.5-0.8 0.1-1.2 0.5-1.3-0.1 0-0.6-0.4-1 0.1q0 0.1 0 0c0-0.9 0.7-1 1.2-0.6 0.1-0.2 0.5-0.4 0.5-0.5q0.1 0.1 0.1 0.1c0.3 0.4 1.2-0.3 1.6-0.6 0 0-0.9-0.9-0.9-1.6q0.1-0.1 0.1-0.2 0 0-0.1 0-0.1 0.1-0.3 0.1c-0.2 0-0.5-0.1-0.5-0.7q0-0.1 0-0.1c0.1 0.2 0.2 0.2 0.3 0.2 0.7 0 2-2.1 3.6-2.1 0.4 0 1.2 0.3 1.6 0.7-0.2 0.1-0.2 0.3-0.2 0.5 0 0.3 0.3 0.4 0.5 0.5-0.8 0.3-2.3 0.9-2.6 1.2-0.4 0.3-0.3 1-0.1 1.9 0.2 0.8 0.7 0.7 0.9 0.7-0.2 0.3-0.5 0.3-0.7 0.3-0.4 0-0.6-0.2-0.8-0.2-0.4 0-1.1 0.5-1.1 0.9 0 0.2 0.1 0.4 0.4 0.6-0.2 0-0.9 0.1-1.1-0.5zm-0.7-1.7q0 0 0 0 0 0 0 0zm-1.1-0.1q0 0 0-0.1c0.5-0.6 0.2-0.1 0.4 0.2q-0.2-0.1-0.4-0.1zm-9.9-10.4l0.5 0.2 0.2-0.3-0.4-0.1 1.7-2.4c0-0.1 0-0.4 0-0.6-0.1 0.1-0.5 0.2-0.5 0.2l-1.7 2.4-0.3-0.3-0.2 0.3 0.4 0.3-0.2 0.2c-0.4-0.2-0.7 0.1-0.8 0.2 0.1 0 0.5-0.1 0.5 0.2-0.4-0.2-0.6 0.1-0.6 0.2q-0.1 0 0 0c0 0 0.3-0.1 0.4 0.1l-0.3 0.4c-0.1 0.2 0.3 0.4 0.4 0.3l0.4-0.6c0 0 1.5 0.8 1.9 1q0-0.5 0.3-0.8c-0.5-0.2-1.4-0.5-1.4-0.5 0 0.1-0.2 0.2-0.3 0.2-0.2 0-0.4-0.3-0.4-0.4q-0.1 0 0 0c0 0 0.2 0.1 0.2 0zm3.5-1.4c0-0.2 0.2-0.2 0.6-0.2-0.2 0.4-0.4 0.4-0.6 0.2z"/>
	</g>

</svg>